<?xml version="1.0" encoding="utf-8"?>
<!-- Generator: Adobe Illustrator 25.4.1, SVG Export Plug-In . SVG Version: 6.00 Build 0)  -->
<svg version="1.1" id="Layer_1" xmlns="http://www.w3.org/2000/svg" xmlns:xlink="http://www.w3.org/1999/xlink" x="0px" y="0px"
	 viewBox="0 0 600 217.6" style="enable-background:new 0 0 600 217.6;" xml:space="preserve">
<style type="text/css">
	.st0{fill:#32A852;}
</style>
<g>
	<g>
		<g>
			<g>
				<path class="st0" d="M242.2,144.7h2.4v22.9h-2.4V144.7z"/>
				<path class="st0" d="M291,144.7v22.9h-2L274.2,149v18.6h-2.4v-22.9h2l14.8,18.6v-18.6H291z"/>
				<path class="st0" d="M319.5,167c-1.6-0.5-2.8-1.3-3.6-2.2l1-1.9c0.8,0.8,1.9,1.5,3.3,2c1.4,0.5,2.8,0.8,4.3,0.8
					c2.1,0,3.6-0.4,4.6-1.1c1-0.8,1.5-1.7,1.5-2.9c0-0.9-0.3-1.6-0.8-2.2c-0.6-0.5-1.2-1-2-1.3c-0.8-0.3-1.9-0.6-3.4-1
					c-1.7-0.4-3.1-0.9-4.1-1.3c-1-0.4-1.9-1-2.6-1.9c-0.7-0.8-1.1-2-1.1-3.4c0-1.2,0.3-2.2,0.9-3.2c0.6-1,1.5-1.7,2.8-2.3
					c1.3-0.6,2.8-0.9,4.7-0.9c1.3,0,2.6,0.2,3.9,0.5c1.3,0.4,2.3,0.9,3.3,1.5l-0.8,1.9c-1-0.6-2-1.1-3.1-1.4
					c-1.1-0.3-2.2-0.5-3.2-0.5c-2,0-3.5,0.4-4.5,1.2c-1,0.8-1.5,1.8-1.5,3c0,0.9,0.3,1.7,0.8,2.2c0.6,0.6,1.3,1,2.1,1.3
					c0.8,0.3,2,0.6,3.4,1c1.7,0.4,3,0.8,4.1,1.2c1,0.4,1.9,1,2.6,1.8c0.7,0.8,1.1,1.9,1.1,3.3c0,1.2-0.3,2.2-0.9,3.2
					c-0.6,1-1.6,1.7-2.9,2.3c-1.3,0.6-2.9,0.8-4.8,0.8C322.7,167.8,321.1,167.5,319.5,167z"/>
				<path class="st0" d="M360.2,165.3c-1.7-1.7-2.5-4.2-2.5-7.4v-13.1h2.4v13c0,2.7,0.6,4.7,1.8,6c1.2,1.3,2.9,2,5.2,2
					c2.3,0,4-0.7,5.2-2c1.2-1.3,1.8-3.3,1.8-6v-13h2.4v13.1c0,3.3-0.8,5.7-2.5,7.4c-1.7,1.7-4,2.6-6.9,2.6
					C364.2,167.8,361.9,167,360.2,165.3z"/>
				<path class="st0" d="M419.2,167.6l-5.2-7.4c-0.6,0.1-1.2,0.1-1.8,0.1H406v7.3h-2.4v-22.9h8.6c2.9,0,5.2,0.7,6.9,2.1
					c1.7,1.4,2.5,3.3,2.5,5.8c0,1.8-0.5,3.3-1.4,4.5c-0.9,1.2-2.2,2.1-3.9,2.7l5.6,7.9H419.2z M417.3,156.8c1.2-1,1.8-2.4,1.8-4.2
					c0-1.9-0.6-3.3-1.8-4.3c-1.2-1-2.9-1.5-5.2-1.5H406v11.5h6.1C414.4,158.3,416.1,157.8,417.3,156.8z"/>
				<path class="st0" d="M461.3,161.5h-12.8l-2.8,6.1h-2.5l10.5-22.9h2.4l10.5,22.9h-2.6L461.3,161.5z M460.4,159.5l-5.5-12.3
					l-5.5,12.3H460.4z"/>
				<path class="st0" d="M509.3,144.7v22.9h-2L492.5,149v18.6h-2.4v-22.9h2l14.8,18.6v-18.6H509.3z"/>
				<path class="st0" d="M540.2,166.3c-1.8-1-3.3-2.4-4.3-4.2c-1-1.8-1.6-3.8-1.6-6c0-2.2,0.5-4.2,1.6-6c1-1.8,2.5-3.2,4.3-4.2
					c1.8-1,3.9-1.5,6.2-1.5c1.7,0,3.3,0.3,4.7,0.9c1.4,0.6,2.7,1.4,3.7,2.5l-1.5,1.5c-1.8-1.8-4.1-2.7-6.8-2.7
					c-1.8,0-3.5,0.4-4.9,1.2c-1.5,0.8-2.6,2-3.5,3.4c-0.8,1.4-1.3,3.1-1.3,4.8c0,1.8,0.4,3.4,1.3,4.9c0.8,1.4,2,2.6,3.5,3.4
					c1.5,0.8,3.1,1.2,4.9,1.2c2.8,0,5-0.9,6.8-2.8l1.5,1.5c-1,1.1-2.2,1.9-3.7,2.5c-1.5,0.6-3,0.9-4.7,0.9
					C544.1,167.8,542.1,167.3,540.2,166.3z"/>
				<path class="st0" d="M595.9,165.5v2.1h-16.2v-22.9h15.7v2.1h-13.3v8.2H594v2.1h-11.9v8.5H595.9z"/>
			</g>
		</g>
		<g>
			<g>
				<path class="st0" d="M238.4,96.7h7.2V58.6h-7.2v-7.4h46.6l0.5,13l-10.5,0.2l-0.3-5.8h-18.3v15.2h20.4v7.4h-20.4v15.5h18.9
					l0.5-5.8l10.5,0.2l-0.5,12.9h-47.4V96.7z"/>
				<path class="st0" d="M296.4,74.9h22.9v7.4h-22.9V74.9z"/>
				<path class="st0" d="M330.8,96.7h7.2V58.6h-7.2v-7.3c5.1,0,27.4,0,32.6,0c9.3,0,15.7,4.7,15.7,14.9v1c0,8.2-5.7,14.6-15.5,14.6
					h-14.9v14.9h9v7.3h-27V96.7z M348.8,74.5c4.5,0,6.1,0,9.6,0c7.2,0,9.7-2.6,9.7-7.5c0-6.3-2.6-8.4-8.9-8.4c-3.2,0-10.4,0-10.4,0
					V74.5z"/>
				<path class="st0" d="M389.9,76.1c0-20.9,9.2-26.3,27.7-26.3h0.5c18,0,27.8,5,27.8,26.3v3c0,20.9-9.4,26.3-27.8,26.3h-0.5
					c-18.5,0-27.7-5.4-27.7-26.3V76.1z M418.3,98.1c11.1,0,16.3-3,16.3-19v-2.9c0-14.8-4.3-19.1-16.3-19.1h-0.8
					c-11.1,0-16.1,3.2-16.1,19.1V79c0,15.9,5,19.1,16.1,19.1H418.3z"/>
				<path class="st0" d="M458.6,96.7h7.2V58.6h-7.2v-7.4h24.5v7.4h-6.6v38.1h19.4l0.5-6.8l10,0.2l-0.5,14h-47.4V96.7z"/>
				<path class="st0" d="M517,96.7h7.2V58.6H517v-7.3h25.1v7.3H535v38.1h7.1v7.3H517V96.7z"/>
				<path class="st0" d="M554.5,90.6l10.7-0.2l0.4,5.6c2.4,1.1,5,2.1,10.9,2.1c8.1,0,11.4-3.2,11.4-7c0-4.2-3.6-7-14.2-10.7
					c-13.5-4.5-18.6-9.3-18.6-16.8c0-8.4,7.3-13.9,20.7-13.9c12.6,0,20.6,2.4,20.6,2.4l0.6,11.4L586,63.9l-0.4-5.7
					c-2.7-0.7-5.1-1.1-9.1-1.1c-6.8,0-9.6,2.4-9.6,5.7c0,3.8,4.2,5.8,14.2,9.3c14.2,5.1,18.7,10.2,18.7,17.6c0,9.9-8.1,15.7-23,15.7
					c-12.8,0-22.1-4.1-22.1-4.1L554.5,90.6z"/>
			</g>
		</g>
	</g>
	<path class="st0" d="M198.5,39.6L99.4,0L0.3,39.6C-6.3,185,99.4,217.6,99.4,217.6S205.1,185,198.5,39.6z M151,117.7
		c-4.8,23.6-25.8,40.7-49.9,40.7c-28.1,0-50.9-22.9-50.9-50.9S73,56.4,101.1,56.4c10.2,0,20.1,3,28.5,8.7c2.1,1.4,2.7,4.4,1.3,6.5
		c-1.5,2.1-4.4,2.7-6.5,1.3c-6.9-4.7-14.9-7.1-23.2-7.1c-22.9,0-41.6,18.6-41.6,41.6c0,22.9,18.6,41.6,41.6,41.6
		c19.7,0,36.8-13.9,40.7-33.2c0.5-2.5,3-4.2,5.5-3.7C149.8,112.6,151.5,115.1,151,117.7z M160.8,87.9L112,130.7
		c-3.1,2.6-6.9,4-10.7,4c-4.3,0-8.4-1.7-11.5-4.8l-19-19.1c-2.3-2.3-3.5-5.4-3.5-8.6c0-3.3,1.3-6.3,3.6-8.6c2.3-2.3,5.4-3.5,8.6-3.5
		c3.3,0,6.3,1.3,8.6,3.6l13.6,13.7l42.9-37.8c2.2-1.9,5.1-3,8.1-3c3.5,0,6.8,1.5,9.1,4.1C166.3,75.7,165.8,83.4,160.8,87.9z
		 M149.6,75.2l-48.2,42.4L82.8,98.9c-1.8-1.8-4.8-1.9-6.6,0c-1.9,1.8-1.9,4.8,0,6.6l19,19.1c1.7,1.7,3.9,2.6,6.2,2.6
		c2,0,4.1-0.7,5.7-2.1l48.7-42.9c1.9-1.7,2.1-4.7,0.4-6.6C154.5,73.7,151.6,73.5,149.6,75.2z"/>
</g>
</svg>
