<?xml version="1.0" encoding="UTF-8"?>
<svg width="100" height="25" id="_Слой_2" data-name="Слой 2" xmlns="http://www.w3.org/2000/svg" viewBox="0 0 1045 214.44">
  <defs>
    <style>
      .cls-1 {
        font-family: Ebrima-Bold, Ebrima;
        font-size: 183.37px;
        font-weight: 700;
      }

      .cls-2, .cls-3 {
        fill: #cb7386;
      }

      .cls-3, .cls-4 {
        fill-rule: evenodd;
      }

      .cls-4, .cls-5 {
        fill: #58a796;
      }
    </style>
  </defs>
  <g id="_Слой_1-2" data-name="Слой 1">
    <g>
      <g>
        <path class="cls-4" d="m171.64,157.48h-21.22c-21.55,0-38.87-6.87-64.6,7.26v-26.17c24.13-16.11,42.94-7.26,64.38-7.26h21.39v26.17h.05Z"/>
        <path class="cls-3" d="m0,172.05h21.22c21.55,0,38.87,6.87,64.6-7.26v26.17c-24.13,16.11-42.94,7.26-64.38,7.26H.05v-26.17h-.05Z"/>
        <path class="cls-4" d="m171.53,105.14h-21.11c-21.55,0-38.87-6.87-64.6,7.26v-26.17c24.13-16.11,42.94-7.26,64.38-7.26h21.33v26.17h0Z"/>
        <path class="cls-3" d="m0,119.65h21.22c21.55,0,38.87,6.87,64.6-7.26v26.17c-24.13,16.11-42.94,7.26-64.38,7.26H.05v-26.17h-.05Z"/>
        <path class="cls-4" d="m171.64,52.75h-21.22c-21.55,0-38.87-6.87-64.6,7.26v-26.17c24.13-16.11,42.94-7.26,64.38-7.26h21.39v26.17h.05Z"/>
        <path class="cls-3" d="m0,67.32h21.22c21.55,0,38.87,6.87,64.6-7.26v26.17c-24.13,16.11-42.94,7.26-64.38,7.26H.05v-26.17h-.05Z"/>
      </g>
      <text class="cls-1" transform="translate(180.36 155.88)"><tspan class="cls-5" x="0" y="0">Epolis</tspan><tspan class="cls-2" x="508.29" y="0">Plus</tspan></text>
    </g>
  </g>
</svg>