<svg width="112" height="30" viewBox="0 0 112 30" fill="none" xmlns="http://www.w3.org/2000/svg">
<path d="M0.0880001 16.024H4.408C4.49333 16.7493 4.824 17.4107 5.4 18.008C5.99733 18.584 6.776 19.0427 7.736 19.384C8.696 19.704 9.77333 19.864 10.968 19.864C12.056 19.864 12.952 19.7467 13.656 19.512C14.36 19.2773 14.8827 18.9467 15.224 18.52C15.5653 18.0933 15.736 17.5813 15.736 16.984C15.736 16.408 15.5227 15.9707 15.096 15.672C14.6693 15.352 13.9973 15.096 13.08 14.904C12.1627 14.6907 10.9573 14.4773 9.464 14.264C8.29067 14.0933 7.18133 13.8587 6.136 13.56C5.09067 13.24 4.16267 12.8347 3.352 12.344C2.56267 11.8533 1.93333 11.256 1.464 10.552C1.016 9.82667 0.792 8.97333 0.792 7.992C0.792 6.776 1.13333 5.70933 1.816 4.792C2.52 3.87467 3.55467 3.16 4.92 2.648C6.28533 2.136 7.96 1.88 9.944 1.88C12.9307 1.88 15.224 2.52 16.824 3.8C18.4453 5.05867 19.2347 6.79733 19.192 9.016H15.032C14.9467 7.75733 14.4133 6.85067 13.432 6.296C12.472 5.74133 11.256 5.464 9.784 5.464C8.41867 5.464 7.288 5.66667 6.392 6.072C5.51733 6.47733 5.08 7.17067 5.08 8.152C5.08 8.536 5.18667 8.87733 5.4 9.176C5.61333 9.45333 5.976 9.69867 6.488 9.912C7 10.1253 7.69333 10.328 8.568 10.52C9.44267 10.712 10.5307 10.904 11.832 11.096C13.048 11.2667 14.1467 11.5013 15.128 11.8C16.1307 12.0773 16.984 12.4507 17.688 12.92C18.4133 13.368 18.968 13.944 19.352 14.648C19.736 15.352 19.928 16.216 19.928 17.24C19.928 18.4987 19.5973 19.5973 18.936 20.536C18.296 21.4533 17.2933 22.168 15.928 22.68C14.584 23.192 12.8347 23.448 10.68 23.448C9.144 23.448 7.78933 23.288 6.616 22.968C5.44267 22.6267 4.42933 22.1787 3.576 21.624C2.72267 21.0693 2.02933 20.4613 1.496 19.8C0.962667 19.1387 0.578667 18.4773 0.344 17.816C0.130667 17.1547 0.0453334 16.5573 0.0880001 16.024ZM36.6348 17.72H40.6668C40.4961 18.808 40.0374 19.7787 39.2908 20.632C38.5654 21.4853 37.5734 22.1573 36.3148 22.648C35.0561 23.1387 33.5201 23.384 31.7068 23.384C29.6801 23.384 27.8881 23.064 26.3308 22.424C24.7734 21.7627 23.5574 20.8133 22.6828 19.576C21.8081 18.3387 21.3708 16.8453 21.3708 15.096C21.3708 13.3467 21.7974 11.8533 22.6508 10.616C23.5041 9.35733 24.6881 8.39733 26.2028 7.736C27.7388 7.07467 29.5308 6.744 31.5788 6.744C33.6694 6.744 35.4081 7.07467 36.7948 7.736C38.1814 8.39733 39.2054 9.4 39.8668 10.744C40.5494 12.0667 40.8374 13.7627 40.7308 15.832H25.5628C25.6694 16.6427 25.9681 17.3787 26.4588 18.04C26.9708 18.7013 27.6534 19.224 28.5068 19.608C29.3814 19.992 30.4161 20.184 31.6108 20.184C32.9334 20.184 34.0321 19.96 34.9068 19.512C35.8028 19.0427 36.3788 18.4453 36.6348 17.72ZM31.3868 9.912C29.8508 9.912 28.6028 10.2533 27.6428 10.936C26.6828 11.5973 26.0641 12.4187 25.7868 13.4H36.6028C36.4961 12.3333 35.9841 11.4907 35.0668 10.872C34.1708 10.232 32.9441 9.912 31.3868 9.912ZM43.1463 7.096H47.3063V29.4H43.1463V7.096ZM47.5943 0.119999V3.768H42.7623V0.119999H47.5943ZM59.7648 23.384C57.7594 23.384 55.9888 23.064 54.4528 22.424C52.9381 21.784 51.7541 20.856 50.9008 19.64C50.0474 18.4027 49.6208 16.888 49.6208 15.096C49.6208 13.304 50.0474 11.7893 50.9008 10.552C51.7541 9.29333 52.9381 8.344 54.4528 7.704C55.9888 7.064 57.7594 6.744 59.7648 6.744C61.7701 6.744 63.5194 7.064 65.0128 7.704C66.5274 8.344 67.7114 9.29333 68.5648 10.552C69.4181 11.7893 69.8448 13.304 69.8448 15.096C69.8448 16.888 69.4181 18.4027 68.5648 19.64C67.7114 20.856 66.5274 21.784 65.0128 22.424C63.5194 23.064 61.7701 23.384 59.7648 23.384ZM59.7648 20.184C60.8741 20.184 61.8661 19.992 62.7408 19.608C63.6368 19.2027 64.3408 18.6267 64.8528 17.88C65.3648 17.112 65.6208 16.184 65.6208 15.096C65.6208 14.008 65.3648 13.08 64.8528 12.312C64.3408 11.5227 63.6474 10.9253 62.7728 10.52C61.8981 10.1147 60.8954 9.912 59.7648 9.912C58.6554 9.912 57.6528 10.1147 56.7568 10.52C55.8608 10.9253 55.1461 11.512 54.6128 12.28C54.1008 13.048 53.8448 13.9867 53.8448 15.096C53.8448 16.184 54.1008 17.112 54.6128 17.88C55.1248 18.6267 55.8288 19.2027 56.7248 19.608C57.6208 19.992 58.6341 20.184 59.7648 20.184ZM71.92 7.096H76.08V23H71.92V7.096ZM83.472 6.744C84.4533 6.744 85.36 6.872 86.192 7.128C87.024 7.384 87.7493 7.77867 88.368 8.312C88.9867 8.84533 89.4667 9.528 89.808 10.36C90.1493 11.1707 90.32 12.1413 90.32 13.272V23H86.16V14.008C86.16 12.664 85.8293 11.6827 85.168 11.064C84.528 10.424 83.472 10.104 82 10.104C80.8907 10.104 79.888 10.3173 78.992 10.744C78.096 11.1707 77.3707 11.7147 76.816 12.376C76.2613 13.016 75.9413 13.688 75.856 14.392L75.824 12.76C75.9307 12.0133 76.176 11.288 76.56 10.584C76.944 9.88 77.456 9.24 78.096 8.664C78.7573 8.06667 79.536 7.59733 80.432 7.256C81.328 6.91467 82.3413 6.744 83.472 6.744ZM101.044 20.568C99.3155 20.568 97.7902 20.312 96.4675 19.8C95.1662 19.2667 94.1528 18.488 93.4275 17.464C92.7022 16.44 92.3395 15.2027 92.3395 13.752C92.3395 12.3227 92.6915 11.0853 93.3955 10.04C94.0995 8.99467 95.1022 8.184 96.4035 7.608C97.7262 7.032 99.2728 6.744 101.044 6.744C101.534 6.744 102.004 6.776 102.452 6.84C102.921 6.904 103.38 6.98933 103.828 7.096L111.86 7.128V10.264C110.772 10.2853 109.662 10.1573 108.532 9.88C107.422 9.58133 106.441 9.26133 105.588 8.92L105.492 8.696C106.217 9.03733 106.9 9.464 107.54 9.976C108.18 10.4667 108.692 11.0427 109.076 11.704C109.481 12.344 109.684 13.0907 109.684 13.944C109.684 15.3307 109.332 16.5253 108.628 17.528C107.924 18.5093 106.921 19.2667 105.62 19.8C104.34 20.312 102.814 20.568 101.044 20.568ZM106.388 29.56V28.792C106.388 27.8107 106.068 27.128 105.428 26.744C104.809 26.36 103.956 26.168 102.868 26.168H97.9075C96.9475 26.168 96.1368 26.0933 95.4755 25.944C94.8355 25.7947 94.3235 25.5813 93.9395 25.304C93.5555 25.0267 93.2782 24.696 93.1075 24.312C92.9368 23.9493 92.8515 23.5547 92.8515 23.128C92.8515 22.2747 93.1288 21.6347 93.6835 21.208C94.2382 20.76 94.9848 20.4613 95.9235 20.312C96.8622 20.1627 97.8968 20.1307 99.0275 20.216L101.044 20.568C99.6995 20.6107 98.6968 20.728 98.0355 20.92C97.3955 21.0907 97.0755 21.4427 97.0755 21.976C97.0755 22.296 97.2035 22.552 97.4595 22.744C97.7155 22.9147 98.0782 23 98.5475 23H103.764C105.193 23 106.409 23.1493 107.412 23.448C108.436 23.768 109.214 24.2907 109.748 25.016C110.281 25.7627 110.548 26.776 110.548 28.056V29.56H106.388ZM101.044 17.56C101.961 17.56 102.761 17.4107 103.444 17.112C104.148 16.8133 104.692 16.3867 105.076 15.832C105.46 15.256 105.652 14.5733 105.652 13.784C105.652 12.9733 105.46 12.28 105.076 11.704C104.692 11.128 104.158 10.6907 103.476 10.392C102.793 10.072 101.982 9.912 101.044 9.912C100.126 9.912 99.3155 10.072 98.6115 10.392C97.9075 10.6907 97.3635 11.128 96.9795 11.704C96.5955 12.28 96.4035 12.9733 96.4035 13.784C96.4035 14.5733 96.5955 15.256 96.9795 15.832C97.3635 16.3867 97.8968 16.8133 98.5795 17.112C99.2835 17.4107 100.105 17.56 101.044 17.56Z" fill="#212121"/>
</svg>
